<?xml version="1.0" encoding="UTF-8" standalone="no" ?>
<!DOCTYPE svg PUBLIC "-//W3C//DTD SVG 1.1//EN" "http://www.w3.org/Graphics/SVG/1.1/DTD/svg11.dtd">
<svg xmlns="http://www.w3.org/2000/svg" xmlns:xlink="http://www.w3.org/1999/xlink" version="1.1" width="175" height="175" viewBox="0 0 175 175" xml:space="preserve">
<!-- Created with SVG Stack Editor - https://svgstack.com -->
<defs>
</defs>
<rect x="0" y="0" width="100%" height="100%" fill="transparent"></rect>
<g transform="matrix(0.66 0 0 0.66 87.5 87.5)"  >
<g style=""   >
		<g transform="matrix(1 0 0 1 0 0)" id="path_0" clip-path="url(#CLIPPATH_1)"  >
<clipPath id="CLIPPATH_1" >
	<rect transform="matrix(1 0 0 1 -0.01 0.02)" id="clip0_105_1091" x="-100" y="-131.648" rx="0" ry="0" width="200" height="263.296" />
</clipPath>
<path style="stroke: none; stroke-width: 1; stroke-dasharray: none; stroke-linecap: butt; stroke-dashoffset: 0; stroke-linejoin: miter; stroke-miterlimit: 4; fill: rgb(255,25,25); fill-rule: nonzero; opacity: 1;"  transform=" translate(-100.93, -131.9)" d="M 6.01491 127.046 C 1.74173 133.888 -0.0495454 155.405 1.43959 169.67 C 1.95755 174.375 2.82082 178.303 4.05097 180.655 C 5.75593 183.893 8.62629 185.835 11.8851 185.943 C 13.9785 186.051 15.295 185.684 54.6816 173.015 C 54.6816 173.015 72.1843 167.426 72.2707 167.383 C 76.6302 166.26 79.5868 162.246 79.8674 157.131 C 80.148 151.865 77.4503 147.225 72.9613 145.564 C 72.9613 145.564 60.6166 140.535 60.595 140.535 C 18.2517 123.075 16.3525 122.385 14.2159 122.363 C 10.9355 122.255 8.04358 123.896 6.01491 127.046 L 6.01491 127.046 Z M 100.715 257.162 C 101.406 255.177 101.492 253.817 101.6 212.424 C 101.6 212.424 101.686 194.144 101.708 193.95 C 101.989 189.461 99.0967 185.382 94.3487 183.547 C 89.4497 181.67 84.1837 182.835 81.2271 186.504 C 81.2271 186.504 72.5944 196.755 72.5512 196.755 C 42.898 231.588 41.6463 233.207 40.9341 235.257 C 40.4808 236.466 40.3298 237.76 40.4593 239.055 C 40.6319 240.911 41.4736 242.724 42.8548 244.429 C 49.7394 252.609 82.7162 264.738 93.248 262.925 C 96.9385 262.299 99.5931 260.249 100.715 257.162 Z M 167.64 242.767 C 177.589 238.796 199.279 211.215 200.811 200.575 C 201.351 196.885 200.185 193.691 197.639 191.662 C 195.977 190.41 194.704 189.914 155.317 176.986 C 155.317 176.986 138.052 171.289 137.814 171.181 C 133.627 169.562 128.858 171.073 125.664 175.023 C 122.319 179.08 121.822 184.454 124.498 188.489 L 131.448 199.798 C 154.821 237.76 156.612 240.437 158.295 241.753 C 160.885 243.803 164.187 244.149 167.64 242.767 Z M 147.289 145.046 C 192.027 134.212 193.775 133.629 195.524 132.463 C 198.243 130.629 199.603 127.586 199.365 123.874 C 199.365 123.766 199.387 123.637 199.365 123.507 C 198.221 112.5 178.97 83.9263 169.475 79.2862 C 166.108 77.6676 162.741 77.7755 159.957 79.6531 C 158.23 80.7753 156.957 82.4803 133.001 115.263 C 133.001 115.263 122.189 130.003 122.06 130.154 C 119.211 133.629 119.168 138.593 121.952 142.866 C 124.844 147.29 129.721 149.427 134.188 148.197 C 134.188 148.197 134.016 148.52 133.973 148.563 C 136.174 147.722 140.102 146.751 147.289 145.046 L 147.289 145.046 Z M 102.377 108.098 C 101.6 90.3576 96.2695 11.3902 95.6436 7.74293 C 94.7372 4.41936 92.1474 2.06695 88.4353 1.11736 C 76.997 -1.70984 33.3373 10.527 25.2442 18.8575 C 22.6328 21.5768 21.6832 24.9004 22.4601 27.8571 C 23.7335 30.4684 77.8387 115.587 77.8387 115.587 C 85.8239 128.557 92.3632 126.529 94.4998 125.859 C 96.6148 125.234 103.111 123.205 102.377 108.098" stroke-linecap="round" />
</g>
</g>
</g>
<g transform="matrix(0.66 0 0 0.66 87.5 87.5)"  >
<g style=""   >
		<g transform="matrix(1 0 0 1 0 0)" id="path_0" clip-path="url(#CLIPPATH_2)"  >
<clipPath id="CLIPPATH_2" >
	<rect transform="matrix(1 0 0 1 -0.01 0.02)" id="clip0_105_1091" x="-100" y="-131.648" rx="0" ry="0" width="200" height="263.296" />
</clipPath>
<path style="stroke: none; stroke-width: 1; stroke-dasharray: none; stroke-linecap: butt; stroke-dashoffset: 0; stroke-linejoin: miter; stroke-miterlimit: 4; fill: rgb(255,25,25); fill-rule: nonzero; opacity: 1;"  transform=" translate(-100.93, -131.9)" d="M 6.01491 127.046 C 1.74173 133.888 -0.0495454 155.405 1.43959 169.67 C 1.95755 174.375 2.82082 178.303 4.05097 180.655 C 5.75593 183.893 8.62629 185.835 11.8851 185.943 C 13.9785 186.051 15.295 185.684 54.6816 173.015 C 54.6816 173.015 72.1843 167.426 72.2707 167.383 C 76.6302 166.26 79.5868 162.246 79.8674 157.131 C 80.148 151.865 77.4503 147.225 72.9613 145.564 C 72.9613 145.564 60.6166 140.535 60.595 140.535 C 18.2517 123.075 16.3525 122.385 14.2159 122.363 C 10.9355 122.255 8.04358 123.896 6.01491 127.046 L 6.01491 127.046 Z M 100.715 257.162 C 101.406 255.177 101.492 253.817 101.6 212.424 C 101.6 212.424 101.686 194.144 101.708 193.95 C 101.989 189.461 99.0967 185.382 94.3487 183.547 C 89.4497 181.67 84.1837 182.835 81.2271 186.504 C 81.2271 186.504 72.5944 196.755 72.5512 196.755 C 42.898 231.588 41.6463 233.207 40.9341 235.257 C 40.4808 236.466 40.3298 237.76 40.4593 239.055 C 40.6319 240.911 41.4736 242.724 42.8548 244.429 C 49.7394 252.609 82.7162 264.738 93.248 262.925 C 96.9385 262.299 99.5931 260.249 100.715 257.162 Z M 167.64 242.767 C 177.589 238.796 199.279 211.215 200.811 200.575 C 201.351 196.885 200.185 193.691 197.639 191.662 C 195.977 190.41 194.704 189.914 155.317 176.986 C 155.317 176.986 138.052 171.289 137.814 171.181 C 133.627 169.562 128.858 171.073 125.664 175.023 C 122.319 179.08 121.822 184.454 124.498 188.489 L 131.448 199.798 C 154.821 237.76 156.612 240.437 158.295 241.753 C 160.885 243.803 164.187 244.149 167.64 242.767 Z M 147.289 145.046 C 192.027 134.212 193.775 133.629 195.524 132.463 C 198.243 130.629 199.603 127.586 199.365 123.874 C 199.365 123.766 199.387 123.637 199.365 123.507 C 198.221 112.5 178.97 83.9263 169.475 79.2862 C 166.108 77.6676 162.741 77.7755 159.957 79.6531 C 158.23 80.7753 156.957 82.4803 133.001 115.263 C 133.001 115.263 122.189 130.003 122.06 130.154 C 119.211 133.629 119.168 138.593 121.952 142.866 C 124.844 147.29 129.721 149.427 134.188 148.197 C 134.188 148.197 134.016 148.52 133.973 148.563 C 136.174 147.722 140.102 146.751 147.289 145.046 L 147.289 145.046 Z M 102.377 108.098 C 101.6 90.3576 96.2695 11.3902 95.6436 7.74293 C 94.7372 4.41936 92.1474 2.06695 88.4353 1.11736 C 76.997 -1.70984 33.3373 10.527 25.2442 18.8575 C 22.6328 21.5768 21.6832 24.9004 22.4601 27.8571 C 23.7335 30.4684 77.8387 115.587 77.8387 115.587 C 85.8239 128.557 92.3632 126.529 94.4998 125.859 C 96.6148 125.234 103.111 123.205 102.377 108.098" stroke-linecap="round" />
</g>
</g>
</g>
</svg>